<svg height="512" viewBox="0 0 64 64" width="512" xmlns="http://www.w3.org/2000/svg"><g id="_22-Circle" data-name="22-Circle"><path d="m58.61 39.69v.01a28.008 28.008 0 0 1 -23.61 19.14v4.16l-8-9 8-9v3.73a16.988 16.988 0 0 0 13.19-11.54l4.81 4.81 5.88-3.19c-.08.29-.17.59-.27.88z" fill="#319aeb"/><path d="m63 30-9 8-7-8h1.88a17.025 17.025 0 0 0 -11.63-14.18l5.75-4.82-4-7a27.862 27.862 0 0 1 20.97 26z" fill="#48befd"/><path d="m31 1 8 9-8 7v-1.97a17.017 17.017 0 0 0 -15.41 12.49l-4.59-6.52-6.53 4.91c.05-.31.11-.6.18-.9a27.976 27.976 0 0 1 26.35-21.98z" fill="#319aeb"/><path d="m26.81 48.19-4.81 3.81 3.49 6.23a28.01 28.01 0 0 1 -21.33-24.23h-3.16l8-8 9 8h-2.88a16.993 16.993 0 0 0 11.69 14.19z" fill="#6bdcff"/><path d="m63 30h-3.03a27.663 27.663 0 0 0 -10.406-20.707 2.869 2.869 0 0 0 -4.184.637 2.838 2.838 0 0 0 .613 3.824 23.02 23.02 0 0 1 8.28 24z" fill="#6bdcff"/><path d="m32 55a23.145 23.145 0 0 1 -4.506-.444l7.506 8.444v-4.16a27.928 27.928 0 0 0 19.412-11.09 2.192 2.192 0 0 0 -.7-3.2 2.208 2.208 0 0 0 -2.905.668 22.953 22.953 0 0 1 -18.807 9.782z" fill="#2a84c9"/><g fill="#48befd"><path d="m9 32a23.024 23.024 0 0 1 .649-5.423l-.649-.577-8 8h3.16a27.986 27.986 0 0 0 12.631 20.5 2.081 2.081 0 0 0 3.083-1.118 2.073 2.073 0 0 0 -.794-2.371 22.947 22.947 0 0 1 -10.08-19.011z"/><path d="m31 1v2.03a27.887 27.887 0 0 0 -21.337 11.108 2.823 2.823 0 0 0 .782 4.129 2.782 2.782 0 0 0 3.6-.615 22.983 22.983 0 0 1 24.88-7.588l.075-.064z"/></g></g></svg>